<svg width="153" height="174" viewBox="0 0 153 174" fill="none" xmlns="http://www.w3.org/2000/svg">
<g id="Frame" clip-path="url(#clip0_1_58)">
<path id="Vector" d="M43.5956 0C48.1255 0 51.7698 3.63633 51.7698 8.15625V21.75H100.815V8.15625C100.815 3.63633 104.459 0 108.989 0C113.519 0 117.163 3.63633 117.163 8.15625V21.75H130.787C142.81 21.75 152.585 31.5035 152.585 43.5V48.9375V65.25V152.25C152.585 164.246 142.81 174 130.787 174H21.7978C9.77495 174 0 164.246 0 152.25V65.25V48.9375V43.5C0 31.5035 9.77495 21.75 21.7978 21.75H35.4214V8.15625C35.4214 3.63633 39.0658 0 43.5956 0ZM136.236 65.25H16.3484V152.25C16.3484 155.241 18.8006 157.688 21.7978 157.688H130.787C133.784 157.688 136.236 155.241 136.236 152.25V65.25ZM112.054 100.934L73.9082 138.996C70.7066 142.191 65.5296 142.191 62.3622 138.996L40.5644 117.246C37.3628 114.052 37.3628 108.886 40.5644 105.725C43.7659 102.565 48.9429 102.531 52.1104 105.725L68.1181 121.698L100.474 89.4129C103.676 86.2184 108.853 86.2184 112.02 89.4129C115.188 92.6074 115.222 97.773 112.02 100.934H112.054Z" fill="#299DC4"/>
</g>
<defs>
<clipPath id="clip0_1_58">
<rect width="152.585" height="174" fill="white"/>
</clipPath>
</defs>
</svg>
