<svg width="170" height="176" viewBox="0 0 170 176" fill="none" xmlns="http://www.w3.org/2000/svg">
<g id="Frame">
<path id="Vector" d="M85 173.25C38.1472 173.25 0 135.025 0 88C0 40.975 38.1472 2.75 85 2.75C131.853 2.75 170 41.0094 170 88C170 134.991 131.853 173.25 85 173.25ZM85 8.42188C41.2661 8.42188 5.65524 44.1375 5.65524 88C5.65524 131.863 41.2661 167.578 85 167.578C128.734 167.578 164.345 131.863 164.345 88C164.345 44.1375 128.734 8.42188 85 8.42188ZM94.4597 15.9156V24.3719C104.839 25.8991 114.681 29.9728 123.113 36.2313L129.077 30.25C119.206 22.6531 107.381 17.5656 94.4597 15.8813V15.9156ZM75.4718 15.95C62.5847 17.6344 50.7258 22.7563 40.8891 30.3531L46.8186 36.3344H46.8528C55.1129 30.2156 64.8811 25.9875 75.4718 24.4062V15.95ZM79.6875 33.2062V61.7031C76.2601 62.3906 73.0383 63.7312 70.1936 65.6219L50.1089 45.4781L42.6028 53.0062L62.7218 73.1844C60.8367 76.0031 59.4657 79.2344 58.7802 82.6719H30.3669V93.3281H58.7802C59.4657 96.7656 60.8367 99.9625 62.7218 102.781L42.6028 122.959L50.1089 130.488L70.1936 110.344C73.073 112.266 76.2974 113.608 79.6875 114.297V142.794H90.3125V114.297C93.7742 113.609 96.9617 112.2 99.7722 110.309L119.891 130.488L127.397 122.959L107.278 102.781C109.163 99.9625 110.534 96.7656 111.22 93.3281H139.633V82.6719H111.22C110.534 79.2344 109.163 76.0031 107.278 73.1844L127.397 53.0062L119.891 45.4781L99.7722 65.6562C96.9274 63.7656 93.7399 62.3906 90.3125 61.7031V33.2062H79.6875ZM142.478 43.7594L136.514 49.7406C142.779 58.2035 146.864 68.0864 148.407 78.5125H156.839C155.125 65.5531 150.052 53.6594 142.478 43.7938V43.7594ZM27.4536 43.7938C19.879 53.6594 14.8065 65.5531 13.0927 78.4781H21.5585C23.1351 67.8219 27.3165 58.025 33.4173 49.775L27.4536 43.7938ZM13.127 97.5219C14.8065 110.447 19.9133 122.341 27.4536 132.206L33.4173 126.225C27.3165 117.941 23.1694 108.144 21.5927 97.5219H13.127ZM148.407 97.5219C146.831 108.178 142.649 117.975 136.514 126.259L142.478 132.241C150.052 122.375 155.159 110.481 156.839 97.5219H148.407ZM46.8528 139.7L40.8891 145.681C50.7258 153.278 62.5847 158.4 75.5061 160.084V151.628C64.8811 150.047 55.1129 145.853 46.8528 139.7ZM123.113 139.734C114.853 145.853 105.085 150.081 94.4597 151.663V160.119C107.381 158.434 119.206 153.312 129.077 145.716L123.147 139.734H123.113Z" fill="#E42D53"/>
</g>
</svg>
